<svg width="592" height="569" xmlns="http://www.w3.org/2000/svg" xmlns:xlink="http://www.w3.org/1999/xlink" xml:space="preserve" overflow="hidden"><g transform="translate(-412 -93)"><path d="M614.531 465.676C596.091 456.01 523.894 431.696 463.222 408.126 448.351 402.252 435.042 391.396 432.44 375.485 429.391 357.045 442.18 344.033 455.786 332.137 492.963 299.273 529.694 290.499 544.565 275.628 574.101 247.1 574.919 200.029 546.392 170.492 517.864 140.956 470.793 140.137 441.256 168.665 440.636 169.263 440.027 169.873 439.429 170.492 431.993 177.928 423.071 192.798 410.877 208.338 368.719 261.204 358.16 266.854 328.27 266.854L328.27 266.854C310.771 266.408 295.441 255.008 289.978 238.377 272.951 190.642 252.802 132.052 244.474 116.512 228.171 87.2329 191.221 76.7134 161.942 93.0161 132.663 109.319 122.143 146.27 138.446 175.548 154.477 199.166 172.753 221.178 193.021 241.277 208.225 256.578 214.973 278.352 211.089 299.57 204.659 331.431 175.279 353.345 142.907 350.428 135.472 349.833 129.821 349.461 126.55 349.461 101.254 349.461 80.7478 369.967 80.7478 395.263 80.7478 420.559 101.254 441.065 126.55 441.065 133.539 441.065 151.681 439.503 174.284 436.678 192.848 434.171 210.898 443.978 218.896 460.917L218.896 460.917C226.332 476.754 218.896 492.368 211.461 508.28 206.565 518.62 200.872 528.564 194.434 538.021 185.519 555.232 192.245 576.411 209.455 585.325 225.579 593.677 245.412 588.35 255.181 573.042 260.832 563.227 266.111 532.965 286.93 491.253 289.549 484.785 294.441 479.497 300.685 476.382 313.429 470.989 328.134 476.948 333.526 489.693 333.947 490.685 334.302 491.703 334.59 492.74 336.97 500.77 339.2 507.611 340.687 511.105 348.648 526.913 367.916 533.275 383.723 525.314 397.407 518.423 404.299 502.81 400.17 488.056 398.69 484.726 396.95 481.52 394.965 478.464 389.962 470.921 391.579 460.801 398.683 455.192 405.711 450.519 415.065 451.486 420.989 457.497 474.226 503.298 537.947 562.484 557.651 572.967 586.845 589.415 623.845 579.083 640.292 549.889 656.741 520.696 646.408 483.696 617.215 467.247 616.235 466.696 615.242 466.171 614.234 465.676Z" stroke="#000000" stroke-width="5.24847" fill="none" transform="matrix(1.00106 0 0 1 345.99 15.9675)"/><path d="M385.448 148.707C385.448 165.133 372.133 178.448 355.707 178.448 339.281 178.448 325.965 165.133 325.965 148.707 325.965 132.281 339.281 118.965 355.707 118.965 372.133 118.965 385.448 132.281 385.448 148.707Z" stroke="#000000" stroke-width="5.24847" fill="none" transform="matrix(1.00106 0 0 1 345.99 15.9675)"/><path d="M147.517 261.798C147.517 283.193 130.174 300.537 108.779 300.537 87.3846 300.537 70.0409 283.193 70.0409 261.798 70.0409 240.404 87.3846 223.06 108.779 223.06 130.174 223.06 147.517 240.404 147.517 261.798Z" stroke="#000000" stroke-width="5.24847" fill="none" transform="matrix(1.00106 0 0 1 345.99 15.9675)"/><path d="M140.082 505.603C140.082 513.816 133.424 520.474 125.211 520.474 116.998 520.474 110.34 513.816 110.34 505.603 110.34 497.39 116.998 490.733 125.211 490.733 133.424 490.733 140.082 497.39 140.082 505.603Z" stroke="#000000" stroke-width="5.24847" fill="none" transform="matrix(1.00106 0 0 1 345.99 15.9675)"/><path d="M333.401 598.545C333.401 604.705 328.407 609.698 322.248 609.698 316.088 609.698 311.095 604.705 311.095 598.545 311.095 592.385 316.088 587.392 322.248 587.392 328.407 587.392 333.401 592.385 333.401 598.545Z" stroke="#000000" stroke-width="5.24847" fill="none" transform="matrix(1.00106 0 0 1 345.99 15.9675)"/><path d="M474.672 613.416C474.672 627.788 463.021 639.439 448.649 639.439 434.276 639.439 422.625 627.788 422.625 613.416 422.625 599.043 434.276 587.392 448.649 587.392 463.021 587.392 474.672 599.043 474.672 613.416Z" stroke="#000000" stroke-width="5.24847" fill="none" transform="matrix(1.00106 0 0 1 345.99 15.9675)"/><path d="M578.767 379.202C578.767 387.415 572.109 394.073 563.896 394.073 555.684 394.073 549.026 387.415 549.026 379.202 549.026 370.99 555.684 364.332 563.896 364.332 572.109 364.332 578.767 370.99 578.767 379.202Z" stroke="#000000" stroke-width="5.24847" fill="none" transform="matrix(1.00106 0 0 1 345.99 15.9675)"/></g></svg>